<?xml version="1.0" encoding="UTF-8"?>
<svg id="Capa_2" data-name="Capa 2" xmlns="http://www.w3.org/2000/svg" xmlns:xlink="http://www.w3.org/1999/xlink" viewBox="0 0 711.07 257.5">
  <defs>
    <style>
      .cls-1 {
        fill: none;
      }

      .cls-2 {
        clip-path: url(#clippath-1);
      }

      .cls-3 {
        clip-path: url(#clippath-3);
      }

      .cls-4 {
        clip-path: url(#clippath-2);
      }

      .cls-5 {
        clip-path: url(#clippath);
      }
    </style>
    <clipPath id="clippath">
      <path class="cls-1" d="M332.29,90.75c116.28-11.29,123.31,157.23,17.98,166.34-111.98,9.68-123.88-156.06-17.98-166.34ZM334.29,134.42c-42.38,6.12-40.5,86.72,14.71,78.73,43.38-6.27,41-86.78-14.71-78.73Z"/>
    </clipPath>
    <clipPath id="clippath-1">
      <path class="cls-1" d="M210.3,5.34c24.83-4.19,29.05,8.04,30.74,29.75v210.34c-.43,13.27-24.58,11.59-34.02,10.66-9.61-.94-13.75-3.86-14.73-13.72V32.04c1.48-12.31,3.71-24.29,18.01-26.7Z"/>
    </clipPath>
    <clipPath id="clippath-2">
      <path class="cls-1" d="M154.91,139.58h0c0-13.31-10.79-24.1-24.1-24.1h-60.34l-20.01-.14c.54.54.17-38.2-.03-56.81-.06-5.39,4.25-9.8,9.64-9.87l92.63-1.26c12.01-.18,21.65-9.97,21.65-21.98v-3.41C174.35,9.88,164.51.04,152.37.03l-87.08-.03c-3.65,0-18.19,1.41-22.27,2.15C-17.44,13.18,4.4,95.72,1.7,136.8l-.11,9.14-.04,60.52-.02,28.75c0,12.21,9.82,22.14,22.03,22.25,1.44.01,2.89.03,4.34.04,12.38.12,22.47-9.91,22.44-22.29l-.09-71.42,80.6-.1c13.3-.02,24.07-10.8,24.07-24.1Z"/>
    </clipPath>
    <clipPath id="clippath-3">
      <path class="cls-1" d="M630.61,257.12c-11.9,0-23.12-6.48-29.74-17.33l-.59-.97c-.22-.36-.41-.74-.57-1.13l-.43-1.05c-7.66-18.84-17.68-43.46-24.85-61.06-2.62-6.44-11.7-6.53-14.46-.15-7.51,17.37-18.13,41.99-26.27,60.84l-.34.79c-.13.29-.27.58-.43.85l-.43.74c-5.99,10.24-15.94,16.73-27.28,17.82-13.04,1.24-30.76-3.74-38.44-17.06-15.86-27.49-40.67-120.27-40.67-120.27-3.86-11.43,2.28-23.83,13.72-27.69,11.43-3.86,23.83,2.28,27.69,13.72l26.45,78.39c2.3,6.81,11.79,7.2,14.64.6,21.08-48.85,21.21-49.05,21.99-50.34,8.18-13.5,21.81-21.66,36.46-21.82,14.58-.17,28.33,7.64,36.75,20.88,1.03,1.61,1.22,1.91,19.8,47.57,2.64,6.5,11.83,6.53,14.52.06l28.58-68.96c4.62-11.15,19.61-15.38,30.76-10.76,11.15,4.62,16.58,17.41,11.96,28.55l-42.13,103.25c-5.4,13.03-21.04,23.42-34.15,24.43-.85.07-1.69.1-2.53.1Z"/>
    </clipPath>
    <image id="image" width="8192" height="8192" xlink:href="../../Desktop/DesarrollAndo/Flow/image-gen.png"/>
  </defs>
  <g id="Capa_1-2" data-name="Capa 1">
    <g>
      <g class="cls-5">
        <use transform="translate(-668.46 -895.25) scale(.25)" xlink:href="#image"/>
      </g>
      <g class="cls-2">
        <use transform="translate(-668.46 -895.25) scale(.25)" xlink:href="#image"/>
      </g>
      <g class="cls-4">
        <use transform="translate(-668.46 -895.25) scale(.25)" xlink:href="#image"/>
      </g>
      <g class="cls-3">
        <use transform="translate(-856.73 -966.97) scale(.25)" xlink:href="#image"/>
      </g>
    </g>
  </g>
</svg>